<?xml version="1.0" standalone="no"?>
<!DOCTYPE svg PUBLIC "-//W3C//DTD SVG 20010904//EN"
 "http://www.w3.org/TR/2001/REC-SVG-20010904/DTD/svg10.dtd">
<svg version="1.0" xmlns="http://www.w3.org/2000/svg"
 width="400.000000pt" height="400.000000pt" viewBox="0 0 400.000000 400.000000"
 preserveAspectRatio="xMidYMid meet">

<g transform="translate(0.000000,400.000000) scale(0.100000,-0.100000)"
fill="#000000" stroke="none">
<path d="M1375 2698 c-34 -73 -36 -206 -3 -275 25 -54 84 -115 128 -133 25
-10 30 -18 30 -46 0 -34 -1 -34 -45 -34 -33 0 -45 4 -45 15 0 11 -11 15 -40
15 l-40 0 0 -130 0 -130 40 0 c33 0 40 3 40 20 0 17 7 20 44 20 l43 0 6 -82
c4 -45 10 -85 15 -90 5 -5 172 -7 373 -6 l364 3 9 78 9 77 34 0 33 0 0 120 0
120 -35 0 c-57 0 -55 24 8 83 80 76 91 103 92 222 l0 100 -70 8 c-38 4 -93 12
-121 18 -29 5 -103 12 -166 14 -63 2 -121 5 -128 7 -9 2 -20 -14 -29 -39 -9
-24 -20 -43 -26 -43 -7 0 -18 21 -26 47 l-15 48 -174 16 c-96 10 -199 20 -228
23 l-53 6 -24 -52z m294 -83 c78 -40 39 -125 -57 -125 -54 0 -92 29 -92 70 0
58 84 89 149 55z m555 1 c62 -26 61 -97 -1 -123 -44 -18 -88 -11 -120 19 -29
27 -29 59 0 85 39 36 70 41 121 19z"/>
<path d="M2542 2128 l3 -233 50 0 50 0 3 233 2 232 -55 0 -55 0 2 -232z"/>
<path d="M2453 2270 l-33 -20 0 -135 0 -134 30 -16 c16 -8 34 -15 40 -15 6 0
10 58 10 170 0 94 -3 170 -7 170 -5 0 -23 -9 -40 -20z"/>
<path d="M1429 1711 l-29 -29 0 -139 0 -139 -42 -10 c-44 -10 -65 -34 -29 -34
16 0 21 -6 21 -27 0 -20 -3 -24 -9 -14 -5 7 -14 10 -20 7 -18 -11 -13 -26 9
-26 24 0 23 -8 -21 -142 -39 -118 -36 -208 6 -208 8 0 16 22 20 62 4 33 18 92
31 129 13 38 24 89 24 114 0 51 9 55 44 20 32 -32 71 -41 114 -25 43 15 64 0
29 -22 -35 -24 -113 -48 -152 -48 -28 0 -35 -4 -35 -20 0 -15 7 -20 29 -20 17
0 33 -4 36 -10 4 -6 -8 -10 -29 -10 -29 0 -36 -4 -36 -20 0 -16 7 -20 31 -20
27 0 46 -15 123 -95 72 -75 97 -95 119 -95 30 0 35 11 11 31 -14 11 -13 14 5
24 20 10 16 15 -53 84 l-75 74 44 28 c24 15 45 36 48 46 12 41 7 129 -7 148
-9 12 -15 42 -16 73 0 51 -1 52 -29 52 -26 0 -30 -4 -33 -32 -3 -32 -4 -33
-43 -30 -22 2 -43 6 -47 9 -9 5 -11 194 -2 217 7 19 69 22 80 4 4 -6 10 -25
14 -42 4 -25 11 -31 30 -31 24 0 25 2 25 73 0 68 -2 76 -28 98 -43 37 -118 34
-158 -5z m94 -28 c-7 -2 -19 -2 -25 0 -7 3 -2 5 12 5 14 0 19 -2 13 -5z m72
-503 c-10 -15 -65 -42 -78 -37 -7 2 8 13 33 25 55 25 53 24 45 12z"/>
<path d="M1780 1495 l0 -245 30 0 30 0 0 245 0 245 -30 0 -30 0 0 -245z"/>
<path d="M2011 1537 c-1 -111 1 -222 5 -245 6 -36 10 -42 30 -42 l24 0 0 135
c0 74 4 135 9 135 8 0 101 -240 101 -261 0 -5 14 -9 30 -9 l30 0 0 245 0 245
-30 0 -30 0 0 -127 c0 -74 -4 -123 -9 -118 -5 6 -28 63 -52 128 -43 115 -44
117 -75 117 l-32 0 -1 -203z"/>
<path d="M2406 1694 c-8 -60 -8 -357 0 -406 l7 -38 92 0 92 0 7 38 c12 74 13
72 -64 72 l-70 0 0 45 0 45 49 0 49 0 1 55 0 55 -49 0 -50 0 0 35 0 35 65 0
65 0 0 55 0 55 -94 0 -93 0 -7 -46z"/>
<path d="M2273 1248 c-4 -7 -22 -44 -39 -82 l-31 -70 -52 3 c-46 2 -52 0 -49
-15 2 -10 14 -21 28 -25 l25 -6 -27 -8 c-16 -4 -28 -11 -28 -17 0 -12 -63 -38
-93 -38 -36 0 -50 21 -36 56 15 40 18 112 5 130 -6 8 -27 17 -46 20 -28 4 -46
-1 -89 -28 -76 -47 -114 -103 -119 -178 -6 -80 14 -114 61 -105 18 4 54 20 82
37 33 20 51 26 53 18 3 -7 13 -21 24 -32 28 -28 92 -20 159 21 40 25 50 28 43
14 -4 -10 -10 -48 -12 -84 -4 -69 9 -96 42 -83 12 5 13 10 5 26 -7 14 -7 23 1
33 7 8 9 18 6 24 -5 7 35 119 50 139 1 2 26 1 56 -3 l53 -7 -3 -74 c-4 -71 -3
-74 27 -105 29 -29 36 -31 85 -27 58 5 116 31 189 86 68 52 58 58 -19 10 -84
-53 -149 -71 -201 -55 l-38 11 65 6 c76 8 145 40 210 99 49 44 39 56 -13 17
-56 -43 -139 -76 -189 -76 -26 0 -49 4 -52 8 -3 4 20 23 50 41 29 17 59 42 66
54 15 27 19 106 6 130 -13 26 -65 22 -105 -8 -30 -24 -39 -25 -93 -19 -33 4
-60 8 -60 11 0 2 9 21 20 43 22 43 26 65 10 55 -7 -4 -7 3 0 20 6 15 10 31 10
36 0 13 -27 11 -37 -3z m-333 -98 c0 -5 -8 -10 -18 -10 -10 0 -41 -11 -68 -25
l-49 -24 37 34 c37 34 98 49 98 25z m-10 -57 c0 -15 -53 -74 -78 -87 -45 -22
-72 -29 -72 -16 0 20 41 71 74 91 30 18 76 26 76 12z m568 -11 c2 -7 -5 -12
-15 -12 -10 0 -30 -8 -43 -17 -24 -17 -25 -17 -10 2 32 44 59 54 68 27z m-166
-32 c27 0 38 -4 35 -12 -4 -12 -90 -13 -110 -1 -13 8 4 25 20 19 8 -3 33 -6
55 -6z m-447 -80 c-33 -35 -100 -59 -116 -43 -7 7 4 14 34 22 24 7 57 23 73
36 39 31 44 22 9 -15z m606 21 c-11 -19 -74 -61 -92 -61 -18 0 2 21 49 50 56
35 55 35 43 11z m-346 -1 c-23 -37 -164 -76 -180 -50 -4 6 9 10 32 10 22 0 55
10 78 24 41 25 81 34 70 16z"/>
</g>
</svg>
